# xmcd
#
# Track frame offsets:
# 150
# 36421
# 60032
# 100342
# 137147
# 169144
# 194475
# 216032
#
# Disc length: 3474 seconds
#
#
# Revision: 0
# Processed by: cddbd v1.5.2PL0 Copyright (c) Steve Scherf et al.
# Submitted via: FreeRIP 2.96 
#
DISCID=6f0d9008
DTITLE=Frank Herbert - DUNE - Der Wüstenplanet - Teil2 - CD22
DYEAR=2008
DGENRE=Speech
TTITLE0=224 Der Wüstenplanet
TTITLE1=225 Der Wüstenplanet
TTITLE2=226 Der Wüstenplanet
TTITLE3=227 Der Wüstenplanet
TTITLE4=228 Der Wüstenplanet
TTITLE5=229 Der Wüstenplanet
TTITLE6=230 Der Wüstenplanet
TTITLE7=231 Der Wüstenplanet
EXTD=gelesen von Jürgen Prochnow, Simon Jäger und Marianne Rosenberg
EXTT0=
EXTT1=
EXTT2=
EXTT3=
EXTT4=
EXTT5=
EXTT6=
EXTT7=
PLAYORDER=
